
<svg xmlns="http://www.w3.org/2000/svg" width="512" height="512" viewBox="0 0 512 512">
  <rect width="512" height="512" rx="80" ry="80" fill="white" stroke="black" stroke-width="8"/>
  
  <!-- Checklist clipboard background -->
  <rect x="128" y="80" width="256" height="320" rx="12" ry="12" fill="black" stroke="none"/>
  <rect x="136" y="88" width="240" height="304" rx="8" ry="8" fill="white" stroke="none"/>
  
  <!-- Checklist items -->
  <!-- Item 1 - completed -->
  <rect x="160" y="120" width="20" height="20" fill="black" stroke="none"/>
  <path d="M165 135 L170 140 L185 125" stroke="white" stroke-width="3" fill="none" stroke-linecap="round" stroke-linejoin="round"/>
  <rect x="200" y="125" width="120" height="8" fill="black"/>
  
  <!-- Item 2 - completed -->
  <rect x="160" y="160" width="20" height="20" fill="black" stroke="none"/>
  <path d="M165 175 L170 180 L185 165" stroke="white" stroke-width="3" fill="none" stroke-linecap="round" stroke-linejoin="round"/>
  <rect x="200" y="165" width="100" height="8" fill="black"/>
  
  <!-- Item 3 - in progress -->
  <rect x="160" y="200" width="20" height="20" fill="none" stroke="black" stroke-width="2"/>
  <rect x="200" y="205" width="140" height="8" fill="black"/>
  
  <!-- Item 4 - pending -->
  <rect x="160" y="240" width="20" height="20" fill="none" stroke="black" stroke-width="2"/>
  <rect x="200" y="245" width="80" height="8" fill="black"/>
  
  <!-- Clock/timer icon in bottom right -->
  <circle cx="320" cy="320" r="30" fill="none" stroke="black" stroke-width="4"/>
  <path d="M320 295 L320 320 L335 335" stroke="black" stroke-width="3" fill="none" stroke-linecap="round" stroke-linejoin="round"/>
  
  <!-- Small productivity icons -->
  <!-- Calendar icon -->
  <rect x="160" y="300" width="40" height="40" fill="none" stroke="black" stroke-width="3" rx="4"/>
  <rect x="160" y="310" width="40" height="4" fill="black"/>
  <circle cx="170" cy="305" r="2" fill="black"/>
  <circle cx="190" cy="305" r="2" fill="black"/>
  
  <!-- Target/goal icon -->
  <circle cx="240" cy="320" r="20" fill="none" stroke="black" stroke-width="3"/>
  <circle cx="240" cy="320" r="12" fill="none" stroke="black" stroke-width="2"/>
  <circle cx="240" cy="320" r="4" fill="black"/>
</svg>